<?xml version="1.0" ?><svg height="23px" version="1.1" viewBox="0 0 22 23" width="22px" xmlns="http://www.w3.org/2000/svg" xmlns:sketch="http://www.bohemiancoding.com/sketch/ns" xmlns:xlink="http://www.w3.org/1999/xlink"><title/><defs/><g fill="none" fill-rule="evenodd" id="miu" stroke="none" stroke-width="1"><path d="M0,2.00246167 L0,20.9975383 C0,21.5511826 0.45097518,22 0.990777969,22 L4.00922203,22 C4.55641359,22 5,21.5605417 5,20.9975383 L5,2.00246167 C5,1.44881738 4.54902482,1 4.00922203,1 L0.990777969,1 C0.443586406,1 0,1.43945834 0,2.00246167 Z M4,2.00204028 C3.99145587,2.00204028 3.99309406,20.9977693 3.99309406,20.9977693 C3.99309406,21.0059944 0.990777969,21.0001076 0.990777969,21.0001076 C0.9993221,21.0001076 0.99768391,2.00437863 0.99768391,2.00437863 C0.99768391,1.99615351 4,2.00204028 4,2.00204028 Z M6,2.00246167 L6,20.9975383 C6,21.5511826 6.45097518,22 6.99077797,22 L10.009222,22 C10.5564136,22 11,21.5605417 11,20.9975383 L11,2.00246167 C11,1.44881738 10.5490248,1 10.009222,1 L6.99077797,1 C6.44358641,1 6,1.43945834 6,2.00246167 Z M10,2.00204028 C9.99145587,2.00204028 9.99309406,20.9977693 9.99309406,20.9977693 C9.99309406,21.0059944 6.99077797,21.0001076 6.99077797,21.0001076 C6.9993221,21.0001076 6.99768391,2.00437863 6.99768391,2.00437863 C6.99768391,1.99615351 10,2.00204028 10,2.00204028 Z M11.6270416,2.97313006 L16.5433292,21.3209652 C16.6866229,21.8557445 17.238394,22.1725478 17.7598034,22.0328366 L20.6753965,21.2516058 C21.203943,21.1099822 21.5186744,20.5706894 21.3729584,20.0268699 L16.4566708,1.67903483 C16.3133771,1.14425551 15.761606,0.827452177 15.2401966,0.967163419 L12.3246035,1.74839423 C11.796057,1.89001783 11.4813256,2.4293106 11.6270416,2.97313006 Z M15.4906359,1.93744684 C15.4823829,1.93965822 20.4004217,20.2876994 20.4004217,20.2876994 C20.4025505,20.2956443 17.5010122,21.0670147 17.5010122,21.0670147 C17.5092652,21.0648033 12.5912264,2.7167621 12.5912264,2.7167621 C12.5890976,2.70881724 15.4906359,1.93744684 15.4906359,1.93744684 Z" fill="#000000" id="editor_books_library_collection_outline_stroke"/></g></svg>