<?xml version="1.0" encoding="UTF-8" standalone="no"?>
<!-- Created with Inkscape (http://www.inkscape.org/) -->

<svg
   xmlns:dc="http://purl.org/dc/elements/1.1/"
   xmlns:cc="http://creativecommons.org/ns#"
   xmlns:rdf="http://www.w3.org/1999/02/22-rdf-syntax-ns#"
   xmlns:svg="http://www.w3.org/2000/svg"
   xmlns="http://www.w3.org/2000/svg"
   xmlns:sodipodi="http://sodipodi.sourceforge.net/DTD/sodipodi-0.dtd"
   xmlns:inkscape="http://www.inkscape.org/namespaces/inkscape"
   width="256"
   height="256"
   id="svg2"
   version="1.1"
   inkscape:version="0.48.4 r9939"
   sodipodi:docname="papyrus.svg">
  <defs
     id="defs4" />
  <sodipodi:namedview
     id="base"
     pagecolor="#ffffff"
     bordercolor="#666666"
     borderopacity="1.0"
     inkscape:pageopacity="0.0"
     inkscape:pageshadow="2"
     inkscape:zoom="0.99999999"
     inkscape:cx="98.541937"
     inkscape:cy="421.45466"
     inkscape:document-units="px"
     inkscape:current-layer="layer1"
     showgrid="false"
     inkscape:window-width="1324"
     inkscape:window-height="995"
     inkscape:window-x="196"
     inkscape:window-y="335"
     inkscape:window-maximized="0" />
  <metadata
     id="metadata7">
    <rdf:RDF>
      <cc:Work
         rdf:about="">
        <dc:format>image/svg+xml</dc:format>
        <dc:type
           rdf:resource="http://purl.org/dc/dcmitype/StillImage" />
        <dc:title />
      </cc:Work>
    </rdf:RDF>
  </metadata>
  <g
     inkscape:label="Calque 1"
     inkscape:groupmode="layer"
     id="layer1"
     transform="translate(0,-796.36218)">
    <g
       id="g3897"
       inkscape:export-xdpi="3.8683043"
       inkscape:export-ydpi="3.8683043"
       transform="matrix(0.68769854,0,0,0.68769854,-93.851334,781.47584)">
      <path
         style="fill:#98bf06;fill-opacity:1"
         clip-path="none"
         d="m 408.97162,54.007189 c -26.21801,0.525114 -54.90464,6.033768 -74.33433,25.001884 -11.73097,11.961376 -19.27216,32.850907 -8.22812,47.623117 12.26616,15.24526 33.19469,18.1222 51.5,19.75 9.98482,1.20261 15.93883,11.82567 12.41905,21.10367 -3.98575,14.71792 -16.02793,24.70108 -23.8251,37.27133 -29.41059,43.10377 -52.60154,92.68463 -55.28458,145.54029 -0.46747,8.17781 -1.90972,12.30723 9.44599,11.16979 18.61764,-1.32328 37.08148,-4.89613 54.83899,-10.64758 -3.53804,-42.07217 7.88427,-86.56369 36.68745,-118.1875 20.0335,-24.58532 37.189,-52.17015 46.78133,-82.60045 6.34035,-24.15242 9.81281,-52.079963 -3.25043,-74.649501 -9.39375,-16.109223 -28.95526,-22.422386 -46.75025,-21.37505 z"
         id="path2987-4"
         inkscape:connector-curvature="0"
         sodipodi:nodetypes="ccccccccccccc" />
      <path
         clip-path="none"
         sodipodi:nodetypes="sscscsssssss"
         inkscape:connector-curvature="0"
         id="path2987-1"
         d="m 392.78412,82.319689 c -4.65185,0.2088 -8.92238,1.77276 -11.09375,4.125 -0.97268,1.05368 -1.368,1.89239 -1.4375,3.15625 -0.0709,1.29031 0.18899,2.0884 0.96875,3.125 1.53115,2.03545 4.47449,3.43158 8.5,4 1.67701,0.23681 4.5534,0.22825 6.28125,0 1.49012,-0.19685 3.98118,-0.7703 4.71875,-1.09375 2.26284,-0.9923 3.10321,-1.49557 4.15625,-2.5 1.34906,-1.28678 1.86275,-2.48545 1.78125,-4.0625 -0.0657,-1.27297 -0.49177,-2.17933 -1.5625,-3.25 -2.10445,-2.10437 -5.70429,-3.31968 -10.28125,-3.5 -0.67484,-0.0266 -1.3667,-0.0298 -2.03125,0 z"
         style="fill:#19171a;fill-opacity:1" />
      <path
         style="fill:#19171a;fill-opacity:1"
         clip-path="none"
         d="m 325.56537,85.475939 c -53.40066,4.647009 -108.83756,22.459411 -145.7999,63.113601 -26.6642,29.24111 -42.13429,68.31937 -43.29385,107.8239 1.50901,3.93551 6.09608,-11.94132 9.28591,-15.52472 25.70637,-47.60497 73.03762,-81.35547 125.10367,-94.44372 21.44373,-5.73511 43.65566,-8.38935 65.82917,-8.34406 -17.66304,-4.92809 -23.58309,-26.95325 -16.19886,-42.345682 1.07845,-3.593733 4.15315,-7.2029 5.07386,-10.279319 z"
         id="path2987-7"
         inkscape:connector-curvature="0"
         sodipodi:nodetypes="cccccccc" />
      <path
         style="fill:#1c99b6;fill-opacity:1"
         clip-path="none"
         d="m 444.90912,60.132189 c 6.36987,5.135024 13.85183,11.568139 17.29314,19.896545 10.24546,22.494396 6.64465,48.570146 0.008,71.564536 -10.93284,32.92456 -30.42714,62.35128 -52.92597,88.44517 -23.56528,30.73566 -32.93274,70.97672 -29.46875,109.2499 56.66437,-19.26375 105.93814,-64.6337 122.56209,-123.03701 14.4371,-48.63801 3.73497,-103.37143 -26.79437,-143.735831 -6.7716,-10.746143 -15.99194,-19.687077 -28.99536,-21.692472 -0.62433,0.07133 -1.04379,-0.798706 -1.67866,-0.690838 z"
         id="path2987-0"
         inkscape:connector-curvature="0" />
    </g>
  </g>
</svg>
